<svg width="19" height="18" viewBox="0 0 19 18" fill="none" xmlns="http://www.w3.org/2000/svg">
<path d="M2.50398 18C1.96278 18 1.49932 17.8043 1.11359 17.413C0.728516 17.021 0.53598 16.55 0.53598 16V2C0.53598 1.45 0.728516 0.979 1.11359 0.587C1.49932 0.195667 1.96278 0 2.50398 0H16.28C16.8212 0 17.2846 0.195667 17.6704 0.587C18.0554 0.979 18.248 1.45 18.248 2V16C18.248 16.55 18.0554 17.021 17.6704 17.413C17.2846 17.8043 16.8212 18 16.28 18H2.50398ZM2.50398 16H8.40798V2H2.50398V16ZM10.376 16H16.28V9H10.376V16ZM10.376 7H16.28V2H10.376V7Z" fill="black"/>
</svg>
